<svg width="252" height="51" viewBox="0 0 252 51" fill="none" xmlns="http://www.w3.org/2000/svg">
<path d="M51 47.3129L51.6581 33.329H54.7839L57.7452 42.7064L60.5419 33.329H63.6677L64.3258 47.3129H61.8581L61.3645 38.1L58.4032 47.3129H56.7581L53.7968 38.1L53.4677 47.3129H51Z" fill="white"/>
<path d="M66.6289 40.2387C66.6289 34.4806 67.945 33 72.0579 33C76.1708 33 77.487 34.4806 77.487 40.2387C77.487 45.8323 76.4999 47.4774 72.0579 47.4774C67.7805 47.6419 66.6289 45.8323 66.6289 40.2387ZM74.6902 40.2387C74.6902 36.1258 74.3612 35.4677 72.0579 35.4677C69.7547 35.4677 69.4257 36.1258 69.4257 40.2387C69.4257 44.8452 69.7547 45.3387 72.0579 45.3387C74.3612 45.3387 74.6902 44.8452 74.6902 40.2387Z" fill="white"/>
<path d="M79.2969 33.329H89.1678V35.7968H85.5485V47.4774H82.9162V35.7968H79.2969V33.329Z" fill="white"/>
<path d="M90.9805 40.2387C90.9805 34.4806 92.2966 33 96.4095 33C100.522 33 101.839 34.4806 101.839 40.2387C101.839 45.8323 100.851 47.4774 96.4095 47.4774C91.9676 47.6419 90.9805 45.8323 90.9805 40.2387ZM98.8772 40.2387C98.8772 36.1258 98.5482 35.4677 96.245 35.4677C93.9418 35.4677 93.6127 36.1258 93.6127 40.2387C93.6127 44.8452 93.9418 45.3387 96.245 45.3387C98.5482 45.3387 98.8772 44.8452 98.8772 40.2387Z" fill="white"/>
<path d="M104.301 33.329H109.401C112.362 33.329 113.678 34.3161 113.678 37.771C113.678 40.4032 112.856 41.5548 111.375 41.8839L114.172 47.1484H111.21L108.743 42.2129H107.098V47.1484H104.465L104.301 33.329ZM107.098 35.7968V40.2387H109.072C110.388 40.2387 110.881 40.0742 110.881 37.9355C110.881 35.9613 110.388 35.7968 108.907 35.7968H107.098Z" fill="white"/>
<path d="M118.452 43.0355C118.617 44.8452 118.946 45.5032 120.591 45.5032C122.071 45.5032 122.565 45.0097 122.565 43.6935C122.565 42.5419 122.071 42.2129 120.591 41.8839L119.604 41.3903C117.136 40.7323 115.984 39.7452 115.984 37.1129C115.984 34.4806 117.136 33 120.591 33C124.21 33 125.197 34.4806 125.362 37.6065H122.73C122.565 35.7968 122.236 35.4677 120.755 35.4677C119.439 35.4677 118.781 35.9613 118.781 37.1129C118.781 38.429 119.275 38.5935 120.92 39.0871L122.071 39.4161C124.539 40.0742 125.691 41.2258 125.691 43.529C125.691 46.1613 124.375 47.6419 120.92 47.6419C117.465 47.6419 116.313 46.3258 116.149 43.0355H118.452Z" fill="white"/>
<path d="M127.828 33.329H132.928C135.889 33.329 137.041 34.4806 137.041 37.771C137.041 41.3903 135.725 42.3774 132.764 42.3774H130.296V47.3129H127.828V33.329ZM130.625 35.7968V40.2387H132.599C134.08 40.2387 134.409 39.9097 134.409 37.9355C134.409 36.1258 133.915 35.7968 132.599 35.7968H130.625Z" fill="white"/>
<path d="M139.184 40.2387C139.184 34.4806 140.5 33 144.613 33C148.726 33 150.042 34.4806 150.042 40.2387C150.042 45.8323 149.055 47.4774 144.613 47.4774C140.335 47.6419 139.184 45.8323 139.184 40.2387ZM147.245 40.2387C147.245 36.1258 146.916 35.4677 144.613 35.4677C142.309 35.4677 141.98 36.1258 141.98 40.2387C141.98 44.8452 142.309 45.3387 144.613 45.3387C146.916 45.3387 147.245 44.8452 147.245 40.2387Z" fill="white"/>
<path d="M152.672 33.329H157.772C160.733 33.329 162.049 34.3161 162.049 37.771C162.049 40.4032 161.227 41.5548 159.746 41.8839L162.543 47.1484H159.582L157.114 42.2129H155.469V47.1484H152.836L152.672 33.329ZM155.469 35.7968V40.2387H157.443C158.759 40.2387 159.253 40.0742 159.253 37.9355C159.253 35.9613 158.759 35.7968 157.278 35.7968H155.469Z" fill="white"/>
<path d="M164.02 33.329H173.89V35.7968H170.271V47.4774H167.639V35.7968H164.02V33.329Z" fill="white"/>
<path d="M224 22.2097H0V26.3226H224V22.2097Z" fill="#D5001C"/>
<path d="M223.738 2.9613V0.164528H193.961V15.4645H223.738V12.5032H197.251V9.21291H223.738V6.25162H197.251V2.9613H223.738Z" fill="white"/>
<path d="M186.558 6.25161H165.993V0H162.703V15.3H165.993V9.54194H186.558V15.3H189.848V0H186.558V6.25161Z" fill="white"/>
<path d="M130.957 3.45484V12.0097C130.957 13.8194 132.438 15.3 134.247 15.3H158.76V12.0097H134.905C134.741 12.0097 134.412 11.8452 134.412 11.5161V3.78387C134.412 3.45484 134.741 3.29032 134.905 3.29032H158.76V0H134.576C132.602 0 130.957 1.48064 130.957 3.45484Z" fill="white"/>
<path d="M123.55 6.25162H101.999C101.67 6.25162 101.505 6.08711 101.505 5.75808V3.45485C101.505 3.12582 101.67 2.9613 101.999 2.9613H126.512V0.164528H101.505C99.6955 0.164528 98.2148 1.64517 98.2148 3.45485V5.75808C98.2148 7.56775 99.6955 9.0484 101.505 9.0484H123.057C123.386 9.0484 123.55 9.21292 123.55 9.54195V11.8452C123.55 12.1742 123.386 12.3387 123.057 12.3387H98.5439V15.1355H123.55C125.36 15.1355 126.841 13.6549 126.841 11.8452V9.70646C126.841 7.89679 125.36 6.25162 123.55 6.25162Z" fill="white"/>
<path d="M94.2717 6.74517V3.45485C94.2717 1.64517 92.7911 0.164528 90.9814 0.164528H65.1523V15.4645H68.4427V11.3516H87.1975C89.0072 11.3516 90.4878 12.8323 90.4878 14.6419V15.3H93.7781C93.9427 13.1613 92.6265 11.1871 90.6523 10.2C92.7911 10.0355 94.2717 8.55485 94.2717 6.74517ZM90.3233 7.89679H68.6072V3.45485H90.1588C90.4878 3.45485 90.6523 3.61937 90.6523 3.9484L90.8169 7.40324C90.8169 7.73227 90.6523 7.89679 90.3233 7.89679Z" fill="white"/>
<path d="M57.9053 0H36.1892C34.3795 0 32.8989 1.48065 32.7344 3.29032V11.8452C32.7344 13.6548 34.215 15.1355 36.0247 15.1355H57.5763C59.386 15.1355 60.8666 13.6548 60.8666 11.8452V3.45484C61.1957 1.48064 59.715 0 57.9053 0ZM57.2473 12.0097H36.6828C36.5182 12.0097 36.1892 11.8452 36.1892 11.5161V3.78387C36.1892 3.45484 36.5182 3.29032 36.6828 3.29032H57.0828C57.4118 3.29032 57.5763 3.45484 57.5763 3.78387L57.7408 11.3516C57.9053 11.6806 57.5763 12.0097 57.2473 12.0097Z" fill="white"/>
<path d="M25.5 0H0V15.3H3.29032V11.3516H25.3355C27.1452 11.3516 28.6258 9.87097 28.6258 8.06129V3.45484C28.7903 1.48064 27.3097 0 25.5 0ZM25.5 7.40323C25.5 7.73226 25.3355 7.89677 25.0065 7.89677H3.45484V3.45484H25.0065C25.3355 3.45484 25.5 3.61935 25.5 3.94839V7.40323Z" fill="white"/>
</svg>
